<svg width="909" height="567" viewBox="0 0 909 567" fill="none" xmlns="http://www.w3.org/2000/svg">
<path d="M908.89 563H869.323L818.066 486.864V563H785.694L785.594 401.935H838.15C868.224 401.935 892.904 425.116 892.904 454.092C892.904 474.774 880.414 492.859 863.129 498.954L908.89 563ZM817.967 434.009V474.475L838.749 474.574C849.74 474.674 859.532 465.782 859.532 454.292C859.532 442.801 849.64 434.009 838.749 434.009H817.967Z" fill="#FF5F5F"/>
<path d="M761.814 433.809H697.068V465.282H752.621V497.555H697.068V530.827H761.814V563H664.695V401.935H761.814V433.809Z" fill="#FF5F5F"/>
<path d="M581.764 530.827H646.51V563H549.392V401.935H581.764V530.827Z" fill="#FF5F5F"/>
<path d="M531.207 401.935V434.009H491.64V563H459.168V434.009H419.501V401.935H531.207Z" fill="#FF5F5F"/>
<path d="M351.258 566.198C324.88 566.198 305.396 555.207 294.605 535.224L320.484 517.039C327.578 528.429 337.869 533.625 351.757 533.625C366.945 533.625 377.136 527.43 377.136 518.837C377.136 507.047 357.852 497.755 340.967 489.362C322.882 480.37 302.998 470.478 302.998 444.799C302.998 416.923 326.579 398.538 356.154 398.538C378.135 398.538 396.32 407.631 403.614 427.114L379.734 443.8C374.938 434.208 365.646 430.312 356.653 430.312C344.564 430.312 335.571 437.306 335.571 445.599C335.571 455.191 347.761 458.488 366.245 467.181C392.923 479.77 409.709 493.359 409.709 518.138C409.709 547.513 385.729 566.198 351.258 566.198Z" fill="#FF5F5F"/>
<path d="M214.274 566.497C180.003 566.497 152.126 539.92 152.126 503.45V401.935H184.699V503.35C184.699 520.936 198.587 533.725 214.174 533.725C229.761 533.725 243.849 520.836 243.849 503.35V401.935H276.422V503.45C276.422 539.92 248.545 566.497 214.274 566.497Z" fill="#FF5F5F"/>
<path d="M93.1751 401.935H125.448V563H93.1751V498.454H35.3237V563H3.05078V401.935H35.3237V466.381H93.1751V401.935Z" fill="#FF5F5F"/>
<path d="M2.59781 32.4727L2.59781 -1.13554e-07L167.06 -7.30241e-06L167.06 1.49874L74.0378 97.1184L164.262 97.1184L164.262 129.491L0 129.491L-6.98798e-08 127.893L92.8221 32.4727L2.59781 32.4727Z" fill="#FF5F5F"/>
<path d="M34.8713 153.271L34.8713 218.017L66.3449 218.017L66.3448 162.464L98.6177 162.464L98.6178 218.017L131.89 218.017L131.89 153.271L164.063 153.271L164.063 250.39L2.99805 250.39L2.99804 153.271L34.8713 153.271Z" fill="#FF5F5F"/>
<path d="M73.339 304.145C73.339 288.658 89.3256 268.575 115.204 268.575C138.984 268.575 164.063 285.66 164.063 318.832L164.063 379.681L2.99805 379.681L2.99804 335.718C2.99804 307.142 23.9804 288.957 45.6622 288.957C62.7479 288.957 73.339 300.248 73.339 304.145ZM34.4716 333.72L34.4716 347.408L65.9452 347.408L65.9452 334.319C65.9452 326.626 59.3507 319.132 49.9586 319.132C40.8662 319.132 34.4716 326.226 34.4716 333.72ZM132.489 321.83C132.489 311.339 125.295 300.148 112.906 300.148C103.614 300.148 94.3214 306.543 94.3214 321.93L94.3214 347.408L132.489 347.408L132.489 321.83Z" fill="#FF5F5F"/>
</svg>
