<svg width="909" height="575" viewBox="0 0 909 575" fill="none" xmlns="http://www.w3.org/2000/svg">
<path d="M908.89 570.67H869.323L818.066 494.534V570.67H785.693L785.594 409.605H838.149C868.224 409.605 892.903 432.785 892.903 461.761C892.903 482.444 880.414 500.529 863.128 506.623L908.89 570.67ZM817.966 441.678V482.144L838.749 482.244C849.74 482.344 859.531 473.451 859.531 461.961C859.531 450.471 849.64 441.678 838.749 441.678H817.966Z" fill="#080909"/>
<path d="M761.813 441.478H697.068V472.952H752.621V505.225H697.068V538.497H761.813V570.67H664.695V409.605H761.813V441.478Z" fill="#080909"/>
<path d="M581.765 538.497H646.51V570.67H549.392V409.605H581.765V538.497Z" fill="#080909"/>
<path d="M531.207 409.605V441.678H491.64V570.67H459.168V441.678H419.501V409.605H531.207Z" fill="#080909"/>
<path d="M351.258 573.867C324.88 573.867 305.397 562.876 294.606 542.893L320.484 524.708C327.578 536.099 337.869 541.294 351.758 541.294C366.945 541.294 377.136 535.099 377.136 526.507C377.136 514.717 357.853 505.424 340.967 497.031C322.882 488.039 302.999 478.147 302.999 452.469C302.999 424.592 326.579 406.208 356.154 406.208C378.136 406.208 396.32 415.3 403.614 434.784L379.734 451.47C374.938 441.878 365.646 437.981 356.654 437.981C344.564 437.981 335.571 444.975 335.571 453.268C335.571 462.86 347.761 466.157 366.246 474.85C392.923 487.439 409.709 501.028 409.709 525.807C409.709 555.183 385.729 573.867 351.258 573.867Z" fill="#080909"/>
<path d="M214.273 574.167C180.002 574.167 152.125 547.589 152.125 511.12V409.605H184.698V511.02C184.698 528.605 198.586 541.394 214.173 541.394C229.76 541.394 243.848 528.505 243.848 511.02V409.605H276.421V511.12C276.421 547.589 248.544 574.167 214.273 574.167Z" fill="#080909"/>
<path d="M93.1749 409.605H125.448V570.67H93.1749V506.124H35.3234V570.67H3.05054V409.605H35.3234V474.051H93.1749V409.605Z" fill="#080909"/>
<path d="M2.59788 32.4728L2.59787 6.09216e-05L167.06 5.37327e-05L167.06 1.4988L74.0379 97.1185L164.262 97.1185L164.262 129.491L6.10352e-05 129.491L6.09653e-05 127.893L92.8221 32.4728L2.59788 32.4728Z" fill="#080909"/>
<path d="M34.8707 153.271L34.8707 218.017L66.3443 218.017L66.3443 162.464L98.6172 162.464L98.6172 218.017L131.889 218.017L131.889 153.271L164.062 153.271L164.062 250.39L2.9975 250.39L2.99749 153.271L34.8707 153.271Z" fill="#080909"/>
<path d="M73.3384 304.145C73.3384 288.658 89.325 268.575 115.203 268.575C138.983 268.575 164.062 285.66 164.062 318.832L164.062 379.681L2.9975 379.681L2.9975 335.718C2.99749 307.142 23.9799 288.957 45.6617 288.957C62.7473 288.957 73.3384 300.248 73.3384 304.145ZM34.4711 333.72L34.4711 347.408L65.9446 347.408L65.9446 334.319C65.9446 326.626 59.3502 319.132 49.9581 319.132C40.8657 319.132 34.4711 326.226 34.4711 333.72ZM132.489 321.83C132.489 311.339 125.295 300.148 112.905 300.148C103.613 300.148 94.3208 306.543 94.3208 321.93L94.3208 347.408L132.489 347.408L132.489 321.83Z" fill="#080909"/>
</svg>
