<svg width="972" height="637" viewBox="0 0 972 637" fill="none" xmlns="http://www.w3.org/2000/svg">
<path d="M153.303 423.713H185.576V584.778H153.303V520.232H95.4512V584.778H63.1783V423.713H95.4512V488.159H153.303V423.713ZM274.401 588.275C240.13 588.275 212.253 561.697 212.253 525.228V423.713H244.826V525.128C244.826 542.713 258.714 555.503 274.301 555.503C289.888 555.503 303.976 542.613 303.976 525.128V423.713H336.549V525.228C336.549 561.697 308.672 588.275 274.401 588.275ZM411.386 587.975C385.008 587.975 365.524 576.985 354.733 557.001L380.612 538.817C387.706 550.207 397.997 555.403 411.885 555.403C427.073 555.403 437.264 549.208 437.264 540.615C437.264 528.825 417.98 519.533 401.095 511.14C383.01 502.147 363.126 492.256 363.126 466.577C363.126 438.701 386.707 420.316 416.282 420.316C438.263 420.316 456.448 429.409 463.742 448.892L439.862 465.578C435.066 455.986 425.774 452.089 416.781 452.089C404.692 452.089 395.699 459.084 395.699 467.377C395.699 476.969 407.889 480.266 426.373 488.959C453.051 501.548 469.837 515.137 469.837 539.916C469.837 569.291 445.857 587.975 411.386 587.975ZM591.335 423.713V455.786H551.768V584.778H519.295V455.786H479.629V423.713H591.335ZM641.892 552.605H706.638V584.778H609.52V423.713H641.892V552.605ZM821.941 455.587H757.196V487.06H812.749V519.333H757.196V552.605H821.941V584.778H724.823V423.713H821.941V455.587ZM969.018 584.778H929.451L878.194 508.642V584.778H845.821L845.721 423.713H898.277C928.352 423.713 953.031 446.894 953.031 475.87C953.031 496.552 940.542 514.637 923.256 520.732L969.018 584.778ZM878.094 455.786V496.252L898.877 496.352C909.867 496.452 919.659 487.56 919.659 476.069C919.659 464.579 909.767 455.786 898.877 455.786H878.094Z" fill="#080909"/>
<path d="M133.276 318.475C133.276 302.988 149.263 282.905 175.141 282.905C198.921 282.905 224 299.991 224 333.163L224 394.012L62.9352 394.012L62.9352 350.049C62.9352 321.473 83.9176 303.288 105.599 303.288C122.685 303.288 133.276 314.578 133.276 318.475ZM94.4088 348.05L94.4088 361.739L125.882 361.739L125.882 348.65C125.882 340.956 119.288 333.463 109.896 333.463C100.803 333.463 94.4088 340.557 94.4088 348.05ZM192.427 336.16C192.427 325.669 185.233 314.479 172.843 314.479C163.551 314.479 154.259 320.873 154.259 336.26L154.259 361.739L192.427 361.739L192.427 336.16ZM94.8085 167.602L94.8085 232.347L126.282 232.347L126.282 176.794L158.555 176.794L158.555 232.347L191.827 232.347L191.827 167.602L224 167.602L224 264.72L62.9352 264.72L62.9352 167.602L94.8085 167.602ZM62.5356 46.8033L62.5356 14.3306L226.997 14.3306L226.997 15.8293L133.976 111.449L224.2 111.449L224.2 143.822L59.9378 143.822L59.9378 142.223L152.76 46.8033L62.5356 46.8033Z" fill="#080909"/>
</svg>
