<svg width="29" height="22" viewBox="0 0 29 22" fill="none" xmlns="http://www.w3.org/2000/svg">
<path d="M7.63379 0.00932915C10.0088 0.0581229 12.4673 0.313304 14.6357 1.37066C18.4677 3.23915 20.4774 7.0608 21.1074 13.2837L26 9.61675L29 13.6177L18.8438 21.232L8.51758 13.6304L11.4824 9.60406L16.041 12.9595C15.4278 8.2068 13.9266 6.58757 12.4443 5.8648C11.2803 5.2972 9.71817 5.05231 7.53125 5.00738C6.4571 4.98532 5.30386 5.01118 4.0332 5.04449C2.77895 5.07736 1.41527 5.11773 0 5.11773V0.117728C1.33457 0.117728 2.62208 0.0799722 3.90137 0.0464385C5.164 0.0133422 6.42728 -0.0154467 7.63379 0.00932915Z" fill="black"/>
</svg>
