<svg width="2145" height="1724" viewBox="0 0 2145 1724" fill="none" xmlns="http://www.w3.org/2000/svg">
<rect width="18.5122" height="1496" transform="matrix(-1 -1.23998e-06 7.35958e-09 -1 1979.51 1496)" fill="#652323"/>
<rect width="18.5122" height="1496" transform="matrix(-1 -1.23998e-06 7.35958e-09 -1 2012.61 1496)" fill="#652323"/>
<rect width="18.5122" height="1496" transform="matrix(-1 -1.23998e-06 7.35958e-09 -1 2045.71 1496)" fill="#652323"/>
<rect width="18.5122" height="1496" transform="matrix(-1 -1.23998e-06 7.35958e-09 -1 2078.81 1496)" fill="#652323"/>
<rect width="18.5122" height="1496" transform="matrix(-1 -1.23998e-06 7.35958e-09 -1 2111.9 1496)" fill="#652323"/>
<rect width="18.5122" height="1496" transform="matrix(-1 -1.23998e-06 7.35958e-09 -1 2145 1496)" fill="#652323"/>
<rect width="17.003" height="2136" transform="matrix(1.9713e-06 -1 1 4.84456e-08 0 1572)" fill="#652323"/>
<rect width="17.003" height="2136" transform="matrix(1.9713e-06 -1 1 4.84456e-08 0 1602.4)" fill="#652323"/>
<rect width="17.003" height="2136" transform="matrix(1.9713e-06 -1 1 4.84456e-08 0 1632.8)" fill="#652323"/>
<rect width="17.003" height="2136" transform="matrix(1.9713e-06 -1 1 4.84456e-08 0 1663.2)" fill="#652323"/>
<rect width="17.003" height="2136" transform="matrix(1.9713e-06 -1 1 4.84456e-08 0 1693.6)" fill="#652323"/>
<rect width="17.003" height="2136" transform="matrix(1.9713e-06 -1 1 4.84456e-08 0 1724)" fill="#652323"/>
</svg>
